# xmcd CD database file
#
# Track frame offsets:
#	150
#	15829
#	31623
#	45171
#	64775
#	79438
#	95563
#	106578
#	121786
#	136570
#	149827
#	165947
#	178938
#	198137
#	218981
#	233292
#	245861
#	262876
#	278249
#	289370
#
# Disc length: 4092 seconds
#
# Revision: 0
# Processed by: cddbd v1.5.2PL0 Copyright (c) Steve Scherf et al.
# Submitted via: CDex 1.40Release
#
DISCID=090ffa14
DTITLE=Kenny Rogers - Complete - CD 1 - The Early Days
DYEAR=1998
DGENRE=Country
TTITLE0=The Gambler
TTITLE1=The Green Green Grass of Home
TTITLE2=Every Time Two Fools Collide
TTITLE3=Something's Burning
TTITLE4=A Love Song
TTITLE5=Love Will Turn You Around
TTITLE6=Anyone Who Isn't Me Tonight
TTITLE7=Just Dropped In
TTITLE8=Makin' Music For Money
TTITLE9=Puttin' In Overtime At Home
TTITLE10=Let It Be Me
TTITLE11=She's A Mystery
TTITLE12=Abraham, martin and John
TTITLE13=Through The Years
TTITLE14=All I Need Is You
TTITLE15=Runaway Girl
TTITLE16=Desperado
TTITLE17=I Want To Make You Smile
TTITLE18=Home Made Love
TTITLE19=Scarlet Fever
EXTD=YEAR: 1998 ID3G: 2
EXTT0=
EXTT1=
EXTT2=
EXTT3=
EXTT4=
EXTT5=
EXTT6=
EXTT7=
EXTT8=
EXTT9=
EXTT10=
EXTT11=
EXTT12=
EXTT13=
EXTT14=
EXTT15=
EXTT16=
EXTT17=
EXTT18=
EXTT19=
PLAYORDER=
